<?xml version="1.0" encoding="UTF-8"?>
<svg version="1.1" xmlns="http://www.w3.org/2000/svg" width="500" height="500">
<path d="M0 0 C2.03515039 2.64007832 3.00693373 4.12080274 2.98046875 7.4765625 C1.68278513 10.81641754 -0.21192311 12.7921111 -2.6875 15.375 C-3.58597656 16.32761719 -4.48445313 17.28023437 -5.41015625 18.26171875 C-6.69212891 19.61716797 -6.69212891 19.61716797 -8 21 C-10.03098426 23.30920128 -12.01581114 25.65030266 -14 28 C-15.65 27.67 -17.3 27.34 -19 27 C-19.2475 25.906875 -19.495 24.81375 -19.75 23.6875 C-21.11430408 19.66280298 -21.46683996 19.04581364 -25 17 C-27.67859497 16.1908411 -30.27956349 15.49104088 -33 14.875 C-33.7115625 14.70613281 -34.423125 14.53726563 -35.15625 14.36328125 C-37.10258258 13.90211663 -39.05120793 13.45065817 -41 13 C-42.33430867 12.67059255 -43.66831461 12.33985721 -45 12 C-44.54057809 17.06512652 -43.68564086 20.92007874 -39.78125 24.37109375 C-34.15835086 29.03520034 -27.57028407 31.93067022 -21 35 C-1.42857143 44.14285714 -1.42857143 44.14285714 2 51 C3.02536899 60.57011058 -1.35148183 67.15094366 -7.125 74.5 C-21.32292413 91.19087068 -21.32292413 91.19087068 -31.70703125 92.44921875 C-33.074883 92.53896281 -34.44346791 92.61804823 -35.8125 92.6875 C-36.52301514 92.7302002 -37.23353027 92.77290039 -37.96557617 92.81689453 C-41.66840882 93.00634771 -45.15661359 92.99568221 -48.8125 92.375 C-50.3903125 92.189375 -50.3903125 92.189375 -52 92 C-53.02104551 92.97850195 -54.0206121 93.97980427 -55 95 C-61.00750851 95.37879202 -66.19947743 94.48782901 -72 93 C-73.16208984 92.71382812 -73.16208984 92.71382812 -74.34765625 92.421875 C-76.23382399 91.95615457 -78.11722494 91.47925183 -80 91 C-79.67 91.66 -79.34 92.32 -79 93 C-78.98394959 94.52388763 -79.0344257 96.04880674 -79.12109375 97.5703125 C-79.16419678 98.37742676 -79.2072998 99.18454102 -79.25170898 100.01611328 C-79.31302002 101.0420459 -79.37433105 102.06797852 -79.4375 103.125 C-79.7159375 108.013125 -79.7159375 108.013125 -80 113 C-68.78 113 -57.56 113 -46 113 C-46 121.22826087 -46 121.22826087 -49.5 124.9375 C-57.72772496 132.01382321 -69.84260271 129.70958651 -80 129 C-79.6920761 131.79224194 -79.37887563 134.58371427 -79.0625 137.375 C-78.93198242 138.56609375 -78.93198242 138.56609375 -78.79882812 139.78125 C-78.3961065 144.02255001 -78.3961065 144.02255001 -77 148 C-76.071875 147.773125 -75.14375 147.54625 -74.1875 147.3125 C-71 147 -71 147 -69.125 148.4375 C-68.75375 148.953125 -68.3825 149.46875 -68 150 C-69.38026967 154.14080902 -72.32371601 155.83758904 -75.6875 158.375 C-76.92124069 159.31944082 -78.15431916 160.26474736 -79.38671875 161.2109375 C-80.29248657 161.90110962 -80.29248657 161.90110962 -81.21655273 162.60522461 C-82.96380279 163.97169135 -84.64665027 165.39364762 -86.328125 166.83984375 C-89 169 -89 169 -91.0625 169.1875 C-96.63847966 165.76996408 -99.44025711 160.17843821 -101 154 C-101.43552701 149.84781119 -101.46452308 145.71937323 -101.4765625 141.546875 C-101.49214203 140.36909485 -101.50772156 139.1913147 -101.52377319 137.97784424 C-101.57109182 134.23523577 -101.59899487 130.49281197 -101.625 126.75 C-101.66153138 122.99303583 -101.70215716 119.23617536 -101.74765015 115.47930908 C-101.77480483 113.14664801 -101.79618713 110.81391103 -101.81118774 108.48114014 C-101.82144989 107.42614319 -101.83171204 106.37114624 -101.84228516 105.28417969 C-101.84878082 104.35788757 -101.85527649 103.43159546 -101.86196899 102.47723389 C-101.99003361 100.17886613 -102.35347542 98.20247468 -103 96 C-106.5219721 95.91995518 -109.61981469 95.95994298 -113 97 C-113.93359375 94.40625 -113.93359375 94.40625 -114 91 C-112.06977999 88.38745866 -109.60132764 86.50237647 -107.0625 84.5 C-106.37406006 83.93192627 -105.68562012 83.36385254 -104.97631836 82.77856445 C-100.4233106 79.04712786 -95.79047475 75.42176768 -91 72 C-86.69879732 73.91164564 -84.800865 76.26551333 -82 80 C-82 80.66 -82 81.32 -82 82 C-80.18696196 80.52149287 -78.37458402 79.04217625 -76.5625 77.5625 C-75.55316406 76.73878906 -74.54382813 75.91507812 -73.50390625 75.06640625 C-71.70216039 73.58798996 -71.70216039 73.58798996 -70 72 C-62.9617022 71.75304218 -62.9617022 71.75304218 -60.14892578 72.4753418 C-57.95614045 72.97355974 -56.24129439 73.24026545 -54 73 C-51.41788227 71.10210393 -49.78373391 68.69790404 -48 66.0625 C-47.51144531 65.39025391 -47.02289063 64.71800781 -46.51953125 64.02539062 C-45.32086173 62.36840629 -44.15688873 60.68642052 -43 59 C-40.5 60.34375 -40.5 60.34375 -38 62 C-38 63.66666667 -38 65.33333333 -38 67 C-32.60956588 71.19255987 -27.56224092 71.20832511 -21 71 C-20.01 70.67 -19.02 70.34 -18 70 C-22.80773928 65.05489674 -27.53897995 61.09393493 -33.60546875 57.79296875 C-34.67216797 57.20580078 -35.73886719 56.61863281 -36.83789062 56.01367188 C-39.05098254 54.80711739 -41.26451633 53.60137301 -43.47851562 52.39648438 C-64.85427142 40.62377082 -64.85427142 40.62377082 -67.62890625 32.05859375 C-68.68131385 26.22050108 -65.6238671 20.67790006 -62.45703125 15.99609375 C-61.73580078 15.00802734 -61.73580078 15.00802734 -61 14 C-60.52949219 13.35160156 -60.05898437 12.70320313 -59.57421875 12.03515625 C-51.6344217 2.08578278 -39.25426411 -5.83802192 -26.625 -7.875 C-16.86803833 -8.54611377 -7.5787398 -6.37074332 0 0 Z " fill="#FEFEFE" transform="translate(298,170)"/>
</svg>
